# xmcd
#
# Track frame offsets: 
#        150
#        10482
#        23375
#        37432
#        52370
#        66260
#        87720
#        118592
#        130567
#        146612
#
# Disc length: 2082 seconds
#
# Revision: 0
# Processed by: cddbd v1.4PL0 Copyright (c) Steve Scherf et al.
# Submitted via: ExactAudioCopy v0.95a3
#
DISCID=9308200a
DTITLE=Darrell Mansfield - Delta Blues
DYEAR=1997
DGENRE=Christian Rock
TTITLE0=You Got to Move
TTITLE1=Keep Your Lamp
TTITLE2=Nobody's Fault
TTITLE3=Jesus Comin' Soon
TTITLE4=Cornerstone
TTITLE5=Celestial Shore
TTITLE6=Slidin'
TTITLE7=Cover Me
TTITLE8=Need Somebody on Your Bond
TTITLE9=Wonderful God
EXTD=
EXTT0=
EXTT1=
EXTT2=
EXTT3=
EXTT4=
EXTT5=
EXTT6=
EXTT7=
EXTT8=
EXTT9=
PLAYORDER=
